#N canvas 104 295 266 343 10;
#X declare -lib mrpeach;
#X obj -68 -131 import mrpeach;
#X obj -17 165 udpsend;
#X msg 4 143 disconnect;
#X obj -68 101 packOSC;
#X obj -17 101 loadbang;
#X obj -68 30 i;
#X obj -68 -60 tgl 15 0 empty empty empty 17 7 0 10 -262144 -1 -1 1
1;
#X msg -68 -81 1;
#X obj -68 -102 loadbang;
#X obj -68 -41 metro 40;
#X obj -68 55 pack i i;
#X msg -68 78 send /test \$1 \$2;
#X obj -19 -4 hsl 128 15 0 127 0 0 empty empty ELLIPSE -2 -8 0 10 -262144
-1 -1 0 1;
#X obj -20 30 hsl 128 15 0 127 0 0 empty empty RECT -2 -8 0 10 -262144
-1 -1 0 1;
#X msg -17 121 connect 127.0.0.1 11000;
#X connect 2 0 1 0;
#X connect 3 0 1 0;
#X connect 4 0 14 0;
#X connect 5 0 10 0;
#X connect 6 0 9 0;
#X connect 7 0 6 0;
#X connect 8 0 7 0;
#X connect 9 0 5 0;
#X connect 10 0 11 0;
#X connect 11 0 3 0;
#X connect 12 0 5 1;
#X connect 13 0 10 1;
#X connect 14 0 1 0;
