#N canvas 359 130 769 668 10;
#X obj 158 113 unpack;
#X obj 201 113 unpack;
#X obj 244 113 unpack;
#X obj 287 113 unpack;
#X obj 330 113 unpack;
#X obj 158 88 route 1 2 3 4 5;
#X floatatom 53 101 5 0 0 0 - - -;
#X obj 89 102 bng 15 250 50 0 empty empty empty 17 7 0 10 -262144 -1
-1;
#X obj 53 68 fiddle~ 1024 1 5 5;
#X msg 158 359 \$1 \$2;
#X obj 158 380 line;
#X obj 158 338 pack;
#X obj 83 162 vsl 15 100 0 990 0 0 empty empty PITCH_SMOOTH 0 -9 0
10 -262144 -1 -1 0 1;
#X floatatom 42 290 5 0 0 0 - - -;
#X msg 201 359 \$1 \$2;
#X obj 201 380 line;
#X obj 201 338 pack;
#X msg 244 359 \$1 \$2;
#X obj 244 380 line;
#X obj 244 338 pack;
#X msg 287 359 \$1 \$2;
#X obj 287 380 line;
#X obj 287 338 pack;
#X msg 330 359 \$1 \$2;
#X obj 330 380 line;
#X obj 330 338 pack;
#X obj 158 518 osc~;
#X obj 158 541 *~;
#X obj 201 518 osc~;
#X obj 201 541 *~;
#X obj 244 518 osc~;
#X obj 244 541 *~;
#X obj 287 518 osc~;
#X obj 287 541 *~;
#X obj 330 518 osc~;
#X obj 330 541 *~;
#X msg 401 358 \$1 \$2;
#X obj 401 379 line;
#X obj 401 337 pack;
#X obj 622 148 vsl 15 100 0 990 0 0 empty empty VOL_SMOOTH 0 -9 0 10
-262144 -1 -1 0 1;
#X floatatom 654 267 5 0 0 0 - - -;
#X msg 444 358 \$1 \$2;
#X obj 444 379 line;
#X obj 444 337 pack;
#X msg 487 358 \$1 \$2;
#X obj 487 379 line;
#X obj 487 337 pack;
#X msg 530 358 \$1 \$2;
#X obj 530 379 line;
#X obj 530 337 pack;
#X msg 573 358 \$1 \$2;
#X obj 573 379 line;
#X obj 573 337 pack;
#X obj 259 613 dac~;
#X floatatom 447 108 5 0 0 0 - - -;
#X obj 53 23 adc~;
#X obj 258 581 *~ 0.5;
#X connect 0 0 11 0;
#X connect 0 0 54 0;
#X connect 0 1 38 0;
#X connect 1 0 16 0;
#X connect 1 1 43 0;
#X connect 2 0 19 0;
#X connect 2 1 46 0;
#X connect 3 0 22 0;
#X connect 3 1 49 0;
#X connect 4 0 25 0;
#X connect 4 1 52 0;
#X connect 5 0 0 0;
#X connect 5 1 1 0;
#X connect 5 2 2 0;
#X connect 5 3 3 0;
#X connect 5 4 4 0;
#X connect 8 0 6 0;
#X connect 8 1 7 0;
#X connect 8 4 5 0;
#X connect 9 0 10 0;
#X connect 10 0 26 0;
#X connect 11 0 9 0;
#X connect 12 0 11 1;
#X connect 12 0 13 0;
#X connect 12 0 16 1;
#X connect 12 0 19 1;
#X connect 12 0 22 1;
#X connect 12 0 25 1;
#X connect 14 0 15 0;
#X connect 15 0 28 0;
#X connect 16 0 14 0;
#X connect 17 0 18 0;
#X connect 18 0 30 0;
#X connect 19 0 17 0;
#X connect 20 0 21 0;
#X connect 21 0 32 0;
#X connect 22 0 20 0;
#X connect 23 0 24 0;
#X connect 24 0 34 0;
#X connect 25 0 23 0;
#X connect 26 0 27 0;
#X connect 27 0 56 0;
#X connect 28 0 29 0;
#X connect 29 0 56 0;
#X connect 30 0 31 0;
#X connect 31 0 56 0;
#X connect 32 0 33 0;
#X connect 33 0 56 0;
#X connect 34 0 35 0;
#X connect 35 0 56 0;
#X connect 36 0 37 0;
#X connect 37 0 27 1;
#X connect 38 0 36 0;
#X connect 39 0 38 1;
#X connect 39 0 40 0;
#X connect 39 0 43 1;
#X connect 39 0 46 1;
#X connect 39 0 49 1;
#X connect 39 0 52 1;
#X connect 41 0 42 0;
#X connect 42 0 29 1;
#X connect 43 0 41 0;
#X connect 44 0 45 0;
#X connect 45 0 31 1;
#X connect 46 0 44 0;
#X connect 47 0 48 0;
#X connect 48 0 33 1;
#X connect 49 0 47 0;
#X connect 50 0 51 0;
#X connect 51 0 35 1;
#X connect 52 0 50 0;
#X connect 55 0 8 0;
#X connect 56 0 53 0;
#X connect 56 0 53 1;
