#N canvas 243 240 514 583 10;
#X declare -lib mrpeach;
#X obj -68 -131 import mrpeach;
#X obj -67 -83 unpackOSC;
#X obj -67 -104 udpreceive 11000;
#X obj -67 -61 routeOSC /test;
#X obj -67 -28 unpack i i;
#X floatatom -67 6 5 0 0 0 - - -;
#X floatatom -10 6 5 0 0 0 - - -;
#X obj -67 81 phasor~;
#X obj -67 126 *~ 2;
#X obj -67 103 -~ 0.5;
#X obj -67 259 moog~;
#X obj -51 160 hsl 128 15 0 8000 0 0 empty empty cutoff -2 -8 0 10
-262144 -1 -1 349 1;
#X obj -54 204 line~;
#X obj -66 412 dac~;
#X obj -10 103 * 20;
#X msg -54 181 \$1 50;
#X obj -67 60 line~;
#X msg -67 39 \$1 50;
#X msg -40 236 2;
#X obj -14 204 loadbang;
#X obj -42 293 hsl 99 15 1 1000 0 1 empty empty delay_time -2 -8 0
10 -4032 -1 -1 2700 1;
#X obj -42 324 hsl 99 15 0 0.5 0 1 empty empty feedback -2 -8 0 10
-4032 -1 -1 6900 1;
#N canvas 1020 77 450 552 delay 0;
#X obj 37 122 inlet~;
#X obj 254 191 inlet;
#X obj 146 327 *~;
#X obj 101 341 *~;
#X obj 37 446 outlet~;
#X obj 145 353 delwrite~ jeden 1000;
#X obj 126 217 vd~ jeden;
#X obj 126 122 inlet~;
#X connect 0 0 4 0;
#X connect 0 0 5 0;
#X connect 1 0 2 1;
#X connect 1 0 3 1;
#X connect 2 0 5 0;
#X connect 3 0 4 0;
#X connect 6 0 2 0;
#X connect 6 0 3 0;
#X connect 7 0 6 0;
#X restore -67 386 pd delay;
#X obj -45 365 line~;
#X msg -18 344 50;
#X connect 1 0 3 0;
#X connect 2 0 1 0;
#X connect 3 0 4 0;
#X connect 4 0 5 0;
#X connect 4 1 6 0;
#X connect 5 0 17 0;
#X connect 6 0 14 0;
#X connect 7 0 9 0;
#X connect 8 0 10 0;
#X connect 9 0 8 0;
#X connect 10 0 22 0;
#X connect 11 0 15 0;
#X connect 12 0 10 1;
#X connect 14 0 11 0;
#X connect 15 0 12 0;
#X connect 16 0 7 0;
#X connect 17 0 16 0;
#X connect 18 0 10 2;
#X connect 19 0 18 0;
#X connect 20 0 24 0;
#X connect 20 0 23 0;
#X connect 21 0 22 2;
#X connect 22 0 13 0;
#X connect 22 0 13 1;
#X connect 23 0 22 1;
#X connect 24 0 23 1;
